<svg width="64" height="64" viewBox="0 0 64 64" fill="none" xmlns="http://www.w3.org/2000/svg">
  <!-- Body Right -->
  <path d="M30 56C30 48 38 44 44 44C50 44 58 48 58 56" fill="#81ECEC" stroke="#2D3436" stroke-width="2.5" stroke-linecap="round" stroke-linejoin="round"/>
  <!-- Body Left -->
  <path d="M6 56C6 48 14 44 20 44C26 44 34 48 34 56" fill="#A29BFE" stroke="#2D3436" stroke-width="2.5" stroke-linecap="round" stroke-linejoin="round"/>
  
  <!-- Face Right -->
  <circle cx="44" cy="30" r="13" fill="#FFDAB9" stroke="#2D3436" stroke-width="2.5"/>
  <!-- Hair Right -->
  <path d="M31 30C31 20 36 17 44 17C52 17 57 20 57 30H31Z" fill="#E17055" stroke="#2D3436" stroke-width="2.5" stroke-linecap="round" stroke-linejoin="round"/>
  <!-- Features Right -->
  <circle cx="40" cy="32" r="1.5" fill="#2D3436"/>
  <circle cx="48" cy="32" r="1.5" fill="#2D3436"/>
  <path d="M40 38C41.5 40 46.5 40 48 38" stroke="#2D3436" stroke-width="2.5" stroke-linecap="round"/>

  <!-- Face Left -->
  <circle cx="20" cy="30" r="13" fill="#FFE0BD" stroke="#2D3436" stroke-width="2.5"/>
  <!-- Hair Left -->
  <path d="M7 30C7 20 12 17 20 17C28 17 33 20 33 30H7Z" fill="#636E72" stroke="#2D3436" stroke-width="2.5" stroke-linecap="round" stroke-linejoin="round"/>
  <!-- Features Left -->
  <circle cx="16" cy="32" r="1.5" fill="#2D3436"/>
  <circle cx="24" cy="32" r="1.5" fill="#2D3436"/>
  <path d="M16 38C17.5 40 22.5 40 24 38" stroke="#2D3436" stroke-width="2.5" stroke-linecap="round"/>
</svg>
