<svg width="64" height="64" viewBox="0 0 64 64" fill="none" xmlns="http://www.w3.org/2000/svg">
  <path d="M32 8C30.5 8 29.2 9.2 29.2 10.7V12.3C26.1 12.8 23.2 14 20.6 15.8L19.5 14.7C18.4 13.6 16.6 13.6 15.5 14.7C14.4 15.8 14.4 17.6 15.5 18.7L16.6 19.8C14.8 22.4 13.6 25.3 13.1 28.4H11.5C10 28.4 8.8 29.7 8.8 31.2V32.8C8.8 34.3 10 35.5 11.5 35.5H13.1C13.6 38.6 14.8 41.5 16.6 44.1L15.5 45.2C14.4 46.3 14.4 48.1 15.5 49.2C16.6 50.3 18.4 50.3 19.5 49.2L20.6 48.1C23.2 49.9 26.1 51.1 29.2 51.6V53.2C29.2 54.7 30.5 55.9 32 55.9H33.6C35.1 55.9 36.3 54.7 36.3 53.2V51.6C39.4 51.1 42.3 49.9 44.9 48.1L46 49.2C47.1 50.3 48.9 50.3 50 49.2C51.1 48.1 51.1 46.3 50 45.2L48.9 44.1C50.7 41.5 51.9 38.6 52.4 35.5H54C55.5 35.5 56.7 34.3 56.7 32.8V31.2C56.7 29.7 55.5 28.4 54 28.4H52.4C51.9 25.3 50.7 22.4 48.9 19.8L50 18.7C51.1 17.6 51.1 15.8 50 14.7C48.9 13.6 47.1 13.6 46 14.7L44.9 15.8C42.3 14 39.4 12.8 36.3 12.3V10.7C36.3 9.2 35.1 8 33.6 8H32Z" fill="#F1F2F6" stroke="#2D3436" stroke-width="2.5" stroke-linecap="round" stroke-linejoin="round"/>
  <circle cx="32.8" cy="32" r="8" fill="white" stroke="#2D3436" stroke-width="2.5" stroke-linecap="round" stroke-linejoin="round"/>
</svg>
