<svg viewBox="0 0 64 64" xmlns="http://www.w3.org/2000/svg">
  <!-- Shivering lines -->
  <path d="M8 25c-2 2-2 5 0 7M56 25c2 2 2 5 0 7" fill="none" stroke="#2D3436" stroke-width="2.5" stroke-linecap="round"/>
  
  <!-- Cloud Shape -->
  <path d="M48 38c4.4 0 8-3.6 8-8s-3.6-8-8-8c-.7 0-1.4.1-2.1.3C43.5 18.2 38.3 15 32 15c-6.6 0-12 5.4-12 12 0 .5.1 1 .2 1.4C17.1 29.2 15 32.3 15 36c0 4.4 3.6 8 8 8h25" fill="#D1E9FF" stroke="#2D3436" stroke-width="2.5" stroke-linejoin="round" stroke-linecap="round"/>
  
  <!-- Downward Arrow -->
  <path d="M32 32v18m-6-6 6 6 6-6" fill="none" stroke="#2D3436" stroke-width="2.5" stroke-linecap="round" stroke-linejoin="round"/>
</svg>